<svg width="10" height="8" viewBox="0 0 10 8" fill="none" xmlns="http://www.w3.org/2000/svg">
<path d="M9.5 0C9.7564 0 9.96775 0.19302 9.99665 0.44169L10 0.5V3.75C10 4.6843 9.26785 5.44755 8.346 5.4974L8.25 5.5H1.7075L3.35356 7.14645C3.5338 7.3267 3.54766 7.6103 3.39515 7.80645L3.35356 7.85355C3.17331 8.0338 2.8897 8.04765 2.69355 7.89515L2.64645 7.85355L0.146445 5.35355C0.12875 5.33585 0.112655 5.31715 0.0981651 5.29765L0.062335 5.24205L0.035615 5.18565L0.017925 5.133L0.00550997 5.07425L0.00198996 5.0449L0 5L0.00139499 4.9624L0.01012 4.89965L0.02487 4.84395L0.046835 4.7884L0.073 4.73965L0.10485 4.69355L0.146445 4.64645L2.64645 2.14645C2.84171 1.95119 3.15829 1.95119 3.35356 2.14645C3.5338 2.32669 3.54766 2.61031 3.39515 2.80645L3.35356 2.85356L1.7075 4.5H8.25C8.63985 4.5 8.9602 4.20255 8.99655 3.82225L9 3.75V0.5C9 0.22386 9.22385 0 9.5 0Z" fill="#ADADAD"/>
</svg>
