<svg width="372" height="50" viewBox="0 0 372 50" fill="none" xmlns="http://www.w3.org/2000/svg">
<rect x="0.5" y="0.5" width="371" height="49" rx="2.5" fill="white" stroke="#D9D9D9"/>
<path d="M147.453 30V19.8182H149.297V28.4538H153.782V30H147.453ZM158.074 30.1491C157.328 30.1491 156.682 29.9851 156.135 29.657C155.588 29.3288 155.164 28.8698 154.862 28.2798C154.564 27.6899 154.415 27.0005 154.415 26.2116C154.415 25.4228 154.564 24.7318 154.862 24.1385C155.164 23.5452 155.588 23.0845 156.135 22.7564C156.682 22.4283 157.328 22.2642 158.074 22.2642C158.82 22.2642 159.466 22.4283 160.013 22.7564C160.56 23.0845 160.982 23.5452 161.281 24.1385C161.582 24.7318 161.733 25.4228 161.733 26.2116C161.733 27.0005 161.582 27.6899 161.281 28.2798C160.982 28.8698 160.56 29.3288 160.013 29.657C159.466 29.9851 158.82 30.1491 158.074 30.1491ZM158.084 28.7074C158.488 28.7074 158.826 28.5964 159.098 28.3743C159.37 28.1489 159.572 27.8473 159.705 27.4695C159.841 27.0916 159.909 26.6707 159.909 26.2067C159.909 25.7393 159.841 25.3168 159.705 24.9389C159.572 24.5578 159.37 24.2545 159.098 24.0291C158.826 23.8037 158.488 23.6911 158.084 23.6911C157.67 23.6911 157.325 23.8037 157.05 24.0291C156.778 24.2545 156.574 24.5578 156.438 24.9389C156.306 25.3168 156.24 25.7393 156.24 26.2067C156.24 26.6707 156.306 27.0916 156.438 27.4695C156.574 27.8473 156.778 28.1489 157.05 28.3743C157.325 28.5964 157.67 28.7074 158.084 28.7074ZM166.022 33.0227C165.375 33.0227 164.82 32.9349 164.356 32.7592C163.892 32.5869 163.519 32.3549 163.238 32.0632C162.956 31.7715 162.76 31.4484 162.651 31.0938L164.272 30.701C164.345 30.8501 164.451 30.9976 164.59 31.1435C164.729 31.2926 164.916 31.4152 165.152 31.5114C165.39 31.6108 165.69 31.6605 166.052 31.6605C166.562 31.6605 166.985 31.5362 167.319 31.2876C167.654 31.0424 167.821 30.638 167.821 30.0746V28.6278H167.732C167.639 28.8134 167.503 29.004 167.324 29.1996C167.149 29.3951 166.915 29.5592 166.623 29.6918C166.335 29.8243 165.972 29.8906 165.535 29.8906C164.948 29.8906 164.416 29.7531 163.939 29.478C163.465 29.1996 163.087 28.7853 162.805 28.2351C162.527 27.6816 162.388 26.9889 162.388 26.157C162.388 25.3184 162.527 24.6108 162.805 24.0341C163.087 23.4541 163.466 23.0149 163.944 22.7166C164.421 22.415 164.953 22.2642 165.54 22.2642C165.987 22.2642 166.355 22.3404 166.643 22.4929C166.935 22.642 167.167 22.8227 167.339 23.0348C167.512 23.2436 167.642 23.4408 167.732 23.6264H167.831V22.3636H169.606V30.1243C169.606 30.7772 169.45 31.3175 169.139 31.745C168.827 32.1726 168.401 32.4924 167.861 32.7045C167.321 32.9167 166.708 33.0227 166.022 33.0227ZM166.037 28.4787C166.418 28.4787 166.743 28.3859 167.011 28.2003C167.28 28.0147 167.483 27.7479 167.623 27.3999C167.762 27.0518 167.831 26.6342 167.831 26.147C167.831 25.6664 167.762 25.2455 167.623 24.8842C167.487 24.523 167.285 24.2429 167.016 24.044C166.751 23.8419 166.424 23.7408 166.037 23.7408C165.636 23.7408 165.301 23.8452 165.032 24.054C164.764 24.2628 164.562 24.5495 164.426 24.9141C164.29 25.2753 164.222 25.6863 164.222 26.147C164.222 26.6143 164.29 27.0237 164.426 27.375C164.565 27.723 164.769 27.9948 165.037 28.1903C165.309 28.3826 165.642 28.4787 166.037 28.4787ZM170.891 30V22.3636H172.69V30H170.891ZM171.796 21.2798C171.511 21.2798 171.265 21.1854 171.06 20.9964C170.854 20.8042 170.752 20.5739 170.752 20.3054C170.752 20.0336 170.854 19.8033 171.06 19.6143C171.265 19.4221 171.511 19.326 171.796 19.326C172.084 19.326 172.329 19.4221 172.531 19.6143C172.737 19.8033 172.84 20.0336 172.84 20.3054C172.84 20.5739 172.737 20.8042 172.531 20.9964C172.329 21.1854 172.084 21.2798 171.796 21.2798ZM175.781 25.5256V30H173.981V22.3636H175.701V23.6612H175.791C175.966 23.2337 176.247 22.8939 176.631 22.642C177.019 22.3902 177.498 22.2642 178.068 22.2642C178.595 22.2642 179.054 22.3769 179.445 22.6023C179.839 22.8277 180.144 23.1541 180.36 23.5817C180.578 24.0092 180.686 24.5279 180.683 25.1378V30H178.883V25.4162C178.883 24.9058 178.751 24.5064 178.485 24.218C178.224 23.9297 177.861 23.7855 177.397 23.7855C177.082 23.7855 176.802 23.8551 176.556 23.9943C176.314 24.1302 176.124 24.3274 175.985 24.5859C175.849 24.8445 175.781 25.1577 175.781 25.5256ZM186.441 30L184.283 22.3636H186.118L187.46 27.733H187.53L188.902 22.3636H190.717L192.089 27.7031H192.163L193.486 22.3636H195.325L193.163 30H191.288L189.857 24.8395H189.752L188.32 30H186.441ZM196.022 30V22.3636H197.822V30H196.022ZM196.927 21.2798C196.642 21.2798 196.396 21.1854 196.191 20.9964C195.985 20.8042 195.883 20.5739 195.883 20.3054C195.883 20.0336 195.985 19.8033 196.191 19.6143C196.396 19.4221 196.642 19.326 196.927 19.326C197.215 19.326 197.46 19.4221 197.662 19.6143C197.868 19.8033 197.971 20.0336 197.971 20.3054C197.971 20.5739 197.868 20.8042 197.662 20.9964C197.46 21.1854 197.215 21.2798 196.927 21.2798ZM202.925 22.3636V23.7557H198.536V22.3636H202.925ZM199.619 20.5341H201.419V27.7031C201.419 27.9451 201.455 28.1307 201.528 28.2599C201.605 28.3859 201.704 28.4721 201.827 28.5185C201.949 28.5649 202.085 28.5881 202.234 28.5881C202.347 28.5881 202.45 28.5798 202.543 28.5632C202.639 28.5466 202.712 28.5317 202.761 28.5185L203.065 29.9254C202.969 29.9586 202.831 29.995 202.652 30.0348C202.476 30.0746 202.261 30.0978 202.006 30.1044C201.555 30.1177 201.149 30.0497 200.788 29.9006C200.426 29.7481 200.14 29.5128 199.928 29.1946C199.719 28.8764 199.616 28.4787 199.619 28.0014V20.5341ZM205.834 25.5256V30H204.035V19.8182H205.795V23.6612H205.884C206.063 23.2304 206.34 22.8906 206.714 22.642C207.092 22.3902 207.573 22.2642 208.156 22.2642C208.686 22.2642 209.149 22.3752 209.543 22.5973C209.938 22.8194 210.242 23.1442 210.458 23.5717C210.677 23.9993 210.786 24.5213 210.786 25.1378V30H208.986V25.4162C208.986 24.9025 208.854 24.5031 208.589 24.218C208.327 23.9297 207.959 23.7855 207.485 23.7855C207.167 23.7855 206.882 23.8551 206.63 23.9943C206.381 24.1302 206.186 24.3274 206.043 24.5859C205.904 24.8445 205.834 25.1577 205.834 25.5256ZM221.874 23.0696C221.791 22.8011 221.677 22.5608 221.531 22.3487C221.388 22.1333 221.216 21.9493 221.014 21.7969C220.815 21.6444 220.586 21.5301 220.328 21.4538C220.069 21.3743 219.787 21.3345 219.482 21.3345C218.936 21.3345 218.448 21.4721 218.021 21.7472C217.593 22.0223 217.257 22.4266 217.012 22.9602C216.77 23.4905 216.649 24.1368 216.649 24.8991C216.649 25.6681 216.77 26.3194 217.012 26.853C217.254 27.3866 217.59 27.7926 218.021 28.071C218.452 28.3461 218.952 28.4837 219.522 28.4837C220.039 28.4837 220.487 28.3842 220.865 28.1854C221.246 27.9865 221.539 27.7048 221.745 27.3402C221.95 26.9723 222.053 26.5414 222.053 26.0476L222.47 26.1122H219.706V24.6705H223.838V25.8935C223.838 26.7652 223.652 27.5192 223.281 28.1555C222.91 28.7919 222.399 29.2824 221.75 29.6271C221.1 29.9685 220.354 30.1392 219.512 30.1392C218.574 30.1392 217.751 29.9287 217.041 29.5078C216.335 29.0836 215.784 28.482 215.386 27.7031C214.991 26.9209 214.794 25.9929 214.794 24.919C214.794 24.0971 214.91 23.3629 215.142 22.7166C215.378 22.0703 215.706 21.5218 216.127 21.071C216.548 20.617 217.041 20.2723 217.608 20.0369C218.175 19.7983 218.791 19.679 219.458 19.679C220.021 19.679 220.546 19.7618 221.034 19.9276C221.521 20.09 221.953 20.322 222.331 20.6236C222.712 20.9252 223.026 21.2831 223.271 21.6974C223.516 22.1117 223.677 22.5691 223.753 23.0696H221.874ZM228.313 30.1491C227.567 30.1491 226.921 29.9851 226.374 29.657C225.827 29.3288 225.403 28.8698 225.101 28.2798C224.803 27.6899 224.653 27.0005 224.653 26.2116C224.653 25.4228 224.803 24.7318 225.101 24.1385C225.403 23.5452 225.827 23.0845 226.374 22.7564C226.921 22.4283 227.567 22.2642 228.313 22.2642C229.058 22.2642 229.705 22.4283 230.251 22.7564C230.798 23.0845 231.221 23.5452 231.519 24.1385C231.821 24.7318 231.972 25.4228 231.972 26.2116C231.972 27.0005 231.821 27.6899 231.519 28.2798C231.221 28.8698 230.798 29.3288 230.251 29.657C229.705 29.9851 229.058 30.1491 228.313 30.1491ZM228.322 28.7074C228.727 28.7074 229.065 28.5964 229.337 28.3743C229.608 28.1489 229.811 27.8473 229.943 27.4695C230.079 27.0916 230.147 26.6707 230.147 26.2067C230.147 25.7393 230.079 25.3168 229.943 24.9389C229.811 24.5578 229.608 24.2545 229.337 24.0291C229.065 23.8037 228.727 23.6911 228.322 23.6911C227.908 23.6911 227.563 23.8037 227.288 24.0291C227.017 24.2545 226.813 24.5578 226.677 24.9389C226.544 25.3168 226.478 25.7393 226.478 26.2067C226.478 26.6707 226.544 27.0916 226.677 27.4695C226.813 27.8473 227.017 28.1489 227.288 28.3743C227.563 28.5964 227.908 28.7074 228.322 28.7074ZM236.27 30.1491C235.524 30.1491 234.878 29.9851 234.331 29.657C233.784 29.3288 233.36 28.8698 233.058 28.2798C232.76 27.6899 232.611 27.0005 232.611 26.2116C232.611 25.4228 232.76 24.7318 233.058 24.1385C233.36 23.5452 233.784 23.0845 234.331 22.7564C234.878 22.4283 235.524 22.2642 236.27 22.2642C237.016 22.2642 237.662 22.4283 238.209 22.7564C238.756 23.0845 239.179 23.5452 239.477 24.1385C239.778 24.7318 239.929 25.4228 239.929 26.2116C239.929 27.0005 239.778 27.6899 239.477 28.2798C239.179 28.8698 238.756 29.3288 238.209 29.657C237.662 29.9851 237.016 30.1491 236.27 30.1491ZM236.28 28.7074C236.684 28.7074 237.022 28.5964 237.294 28.3743C237.566 28.1489 237.768 27.8473 237.901 27.4695C238.037 27.0916 238.105 26.6707 238.105 26.2067C238.105 25.7393 238.037 25.3168 237.901 24.9389C237.768 24.5578 237.566 24.2545 237.294 24.0291C237.022 23.8037 236.684 23.6911 236.28 23.6911C235.866 23.6911 235.521 23.8037 235.246 24.0291C234.974 24.2545 234.77 24.5578 234.634 24.9389C234.502 25.3168 234.436 25.7393 234.436 26.2067C234.436 26.6707 234.502 27.0916 234.634 27.4695C234.77 27.8473 234.974 28.1489 235.246 28.3743C235.521 28.5964 235.866 28.7074 236.28 28.7074ZM244.218 33.0227C243.571 33.0227 243.016 32.9349 242.552 32.7592C242.088 32.5869 241.715 32.3549 241.434 32.0632C241.152 31.7715 240.956 31.4484 240.847 31.0938L242.468 30.701C242.541 30.8501 242.647 30.9976 242.786 31.1435C242.925 31.2926 243.112 31.4152 243.348 31.5114C243.586 31.6108 243.886 31.6605 244.248 31.6605C244.758 31.6605 245.181 31.5362 245.515 31.2876C245.85 31.0424 246.017 30.638 246.017 30.0746V28.6278H245.928C245.835 28.8134 245.699 29.004 245.52 29.1996C245.345 29.3951 245.111 29.5592 244.819 29.6918C244.531 29.8243 244.168 29.8906 243.731 29.8906C243.144 29.8906 242.612 29.7531 242.135 29.478C241.661 29.1996 241.283 28.7853 241.001 28.2351C240.723 27.6816 240.584 26.9889 240.584 26.157C240.584 25.3184 240.723 24.6108 241.001 24.0341C241.283 23.4541 241.662 23.0149 242.14 22.7166C242.617 22.415 243.149 22.2642 243.736 22.2642C244.183 22.2642 244.551 22.3404 244.839 22.4929C245.131 22.642 245.363 22.8227 245.535 23.0348C245.708 23.2436 245.839 23.4408 245.928 23.6264H246.027V22.3636H247.802V30.1243C247.802 30.7772 247.647 31.3175 247.335 31.745C247.023 32.1726 246.598 32.4924 246.057 32.7045C245.517 32.9167 244.904 33.0227 244.218 33.0227ZM244.233 28.4787C244.614 28.4787 244.939 28.3859 245.207 28.2003C245.476 28.0147 245.679 27.7479 245.819 27.3999C245.958 27.0518 246.027 26.6342 246.027 26.147C246.027 25.6664 245.958 25.2455 245.819 24.8842C245.683 24.523 245.481 24.2429 245.212 24.044C244.947 23.8419 244.62 23.7408 244.233 23.7408C243.832 23.7408 243.497 23.8452 243.228 24.054C242.96 24.2628 242.758 24.5495 242.622 24.9141C242.486 25.2753 242.418 25.6863 242.418 26.147C242.418 26.6143 242.486 27.0237 242.622 27.375C242.761 27.723 242.965 27.9948 243.233 28.1903C243.505 28.3826 243.838 28.4787 244.233 28.4787ZM250.886 19.8182V30H249.087V19.8182H250.886ZM255.558 30.1491C254.792 30.1491 254.131 29.9901 253.574 29.6719C253.021 29.3504 252.595 28.8963 252.296 28.3097C251.998 27.7197 251.849 27.0253 251.849 26.2266C251.849 25.4411 251.998 24.7517 252.296 24.1584C252.598 23.5618 253.019 23.0978 253.559 22.7663C254.099 22.4316 254.734 22.2642 255.463 22.2642C255.934 22.2642 256.378 22.3404 256.796 22.4929C257.217 22.642 257.588 22.8741 257.909 23.1889C258.234 23.5038 258.489 23.9048 258.675 24.392C258.861 24.8759 258.953 25.4527 258.953 26.1222V26.674H252.694V25.4609H257.228C257.225 25.1162 257.15 24.8097 257.005 24.5412C256.859 24.2694 256.655 24.0556 256.393 23.8999C256.135 23.7441 255.833 23.6662 255.488 23.6662C255.12 23.6662 254.797 23.7557 254.519 23.9347C254.24 24.1103 254.023 24.3423 253.867 24.6307C253.715 24.9157 253.637 25.2289 253.634 25.5703V26.6293C253.634 27.0734 253.715 27.4545 253.877 27.7727C254.04 28.0876 254.267 28.3295 254.559 28.4986C254.85 28.6643 255.192 28.7472 255.583 28.7472C255.845 28.7472 256.081 28.7107 256.294 28.6378C256.506 28.5616 256.69 28.4505 256.845 28.3047C257.001 28.1589 257.119 27.9782 257.198 27.7628L258.879 27.9517C258.773 28.3958 258.571 28.7836 258.272 29.1151C257.977 29.4432 257.599 29.6984 257.139 29.8807C256.678 30.0597 256.151 30.1491 255.558 30.1491Z" fill="black"/>
<path fill-rule="evenodd" clip-rule="evenodd" d="M116.742 25.0004C116.742 24.286 116.86 23.6009 117.072 22.9584L113.365 20.1274C112.642 21.5944 112.235 23.2475 112.235 25.0004C112.235 26.752 112.642 28.4039 113.363 29.87L117.069 27.0336C116.859 26.394 116.742 25.7115 116.742 25.0004Z" fill="#FBBC05"/>
<path fill-rule="evenodd" clip-rule="evenodd" d="M123.253 18.5C124.805 18.5 126.207 19.05 127.309 19.95L130.513 16.75C128.561 15.05 126.057 14 123.253 14C118.9 14 115.159 16.4894 113.367 20.127L117.074 22.958C117.929 20.365 120.364 18.5 123.253 18.5Z" fill="#EA4335"/>
<path fill-rule="evenodd" clip-rule="evenodd" d="M123.253 31.4997C120.364 31.4997 117.929 29.6347 117.075 27.0417L113.367 29.8722C115.159 33.5103 118.9 35.9997 123.253 35.9997C125.94 35.9997 128.505 35.0456 130.43 33.2581L126.911 30.5377C125.919 31.1631 124.668 31.4997 123.253 31.4997Z" fill="#34A853"/>
<path fill-rule="evenodd" clip-rule="evenodd" d="M133.767 25.0004C133.767 24.3504 133.667 23.6503 133.516 23.0005H123.252V27.2504H129.16C128.865 28.6995 128.061 29.8134 126.91 30.5384L130.429 33.2588C132.451 31.382 133.767 28.5859 133.767 25.0004Z" fill="#4285F4"/>
</svg>
