<svg width="372" height="50" viewBox="0 0 372 50" fill="none" xmlns="http://www.w3.org/2000/svg">
<rect x="0.5" y="0.5" width="371" height="49" rx="2.5" fill="#04A72E" stroke="#68CA82"/>
<path d="M146.538 22.6172C146.491 22.183 146.296 21.8449 145.951 21.603C145.61 21.361 145.165 21.2401 144.619 21.2401C144.234 21.2401 143.904 21.2981 143.629 21.4141C143.354 21.5301 143.144 21.6875 142.998 21.8864C142.852 22.0852 142.777 22.3123 142.774 22.5675C142.774 22.7796 142.822 22.9635 142.918 23.1193C143.018 23.2751 143.152 23.4077 143.321 23.517C143.49 23.6231 143.677 23.7126 143.883 23.7855C144.088 23.8584 144.295 23.9197 144.504 23.9695L145.459 24.2081C145.843 24.2976 146.213 24.4186 146.567 24.571C146.925 24.7235 147.245 24.9157 147.527 25.1477C147.812 25.3797 148.037 25.6598 148.203 25.9879C148.369 26.3161 148.452 26.7005 148.452 27.1413C148.452 27.7379 148.299 28.2633 147.994 28.7173C147.689 29.1681 147.249 29.5211 146.672 29.7763C146.098 30.0282 145.404 30.1541 144.589 30.1541C143.797 30.1541 143.109 30.0315 142.526 29.7862C141.946 29.541 141.491 29.183 141.163 28.7124C140.839 28.2417 140.663 27.6683 140.636 26.9922H142.451C142.478 27.3468 142.587 27.6418 142.779 27.8771C142.971 28.1125 143.222 28.2881 143.53 28.4041C143.841 28.5201 144.189 28.5781 144.574 28.5781C144.975 28.5781 145.326 28.5185 145.628 28.3991C145.933 28.2765 146.171 28.1075 146.344 27.892C146.516 27.6733 146.604 27.4181 146.607 27.1264C146.604 26.8613 146.526 26.6425 146.374 26.4702C146.221 26.2945 146.007 26.1487 145.732 26.0327C145.46 25.9134 145.142 25.8073 144.778 25.7145L143.619 25.4162C142.781 25.2008 142.118 24.8743 141.631 24.4368C141.147 23.996 140.905 23.411 140.905 22.6818C140.905 22.0819 141.067 21.5566 141.392 21.1058C141.72 20.6551 142.166 20.3054 142.729 20.0568C143.293 19.8049 143.931 19.679 144.643 19.679C145.366 19.679 145.999 19.8049 146.543 20.0568C147.089 20.3054 147.519 20.6518 147.83 21.0959C148.142 21.5367 148.303 22.0438 148.312 22.6172H146.538ZM151.654 30.1541C151.17 30.1541 150.734 30.0679 150.346 29.8956C149.962 29.7199 149.657 29.4614 149.432 29.12C149.21 28.7786 149.099 28.3577 149.099 27.8572C149.099 27.4264 149.178 27.0701 149.337 26.7884C149.496 26.5066 149.713 26.2812 149.988 26.1122C150.264 25.9432 150.573 25.8156 150.918 25.7294C151.266 25.6399 151.626 25.5753 151.997 25.5355C152.444 25.4891 152.807 25.4477 153.086 25.4112C153.364 25.3714 153.566 25.3118 153.692 25.2322C153.822 25.1494 153.886 25.0218 153.886 24.8494V24.8196C153.886 24.4451 153.775 24.1551 153.553 23.9496C153.331 23.7441 153.011 23.6413 152.594 23.6413C152.153 23.6413 151.803 23.7375 151.545 23.9297C151.289 24.1219 151.117 24.349 151.028 24.6108L149.347 24.3722C149.48 23.9081 149.698 23.5204 150.003 23.2088C150.308 22.8939 150.681 22.6586 151.122 22.5028C151.563 22.3438 152.05 22.2642 152.584 22.2642C152.952 22.2642 153.318 22.3073 153.682 22.3935C154.047 22.4796 154.38 22.6222 154.682 22.821C154.983 23.0166 155.225 23.2834 155.408 23.6214C155.593 23.9595 155.686 24.3821 155.686 24.8892V30H153.956V28.951H153.896C153.787 29.1631 153.633 29.362 153.434 29.5476C153.238 29.7299 152.991 29.8774 152.693 29.9901C152.398 30.0994 152.052 30.1541 151.654 30.1541ZM152.121 28.8317C152.483 28.8317 152.796 28.7604 153.061 28.6179C153.326 28.4721 153.53 28.2798 153.672 28.0412C153.818 27.8026 153.891 27.5424 153.891 27.2607V26.3608C153.835 26.4072 153.739 26.4503 153.603 26.4901C153.47 26.5298 153.321 26.5646 153.155 26.5945C152.99 26.6243 152.826 26.6508 152.663 26.674C152.501 26.6972 152.36 26.7171 152.241 26.7337C151.972 26.7701 151.732 26.8298 151.52 26.9126C151.308 26.9955 151.14 27.1115 151.018 27.2607C150.895 27.4065 150.834 27.5954 150.834 27.8274C150.834 28.1589 150.955 28.4091 151.197 28.5781C151.439 28.7472 151.747 28.8317 152.121 28.8317ZM163.483 22.3636L160.764 30H158.775L156.056 22.3636H157.975L159.73 28.0362H159.809L161.569 22.3636H163.483ZM167.289 30.1491C166.524 30.1491 165.863 29.9901 165.306 29.6719C164.752 29.3504 164.326 28.8963 164.028 28.3097C163.73 27.7197 163.581 27.0253 163.581 26.2266C163.581 25.4411 163.73 24.7517 164.028 24.1584C164.33 23.5618 164.751 23.0978 165.291 22.7663C165.831 22.4316 166.466 22.2642 167.195 22.2642C167.666 22.2642 168.11 22.3404 168.527 22.4929C168.948 22.642 169.32 22.8741 169.641 23.1889C169.966 23.5038 170.221 23.9048 170.407 24.392C170.592 24.8759 170.685 25.4527 170.685 26.1222V26.674H164.426V25.4609H168.96C168.957 25.1162 168.882 24.8097 168.736 24.5412C168.59 24.2694 168.387 24.0556 168.125 23.8999C167.866 23.7441 167.565 23.6662 167.22 23.6662C166.852 23.6662 166.529 23.7557 166.25 23.9347C165.972 24.1103 165.755 24.3423 165.599 24.6307C165.447 24.9157 165.369 25.2289 165.365 25.5703V26.6293C165.365 27.0734 165.447 27.4545 165.609 27.7727C165.771 28.0876 165.999 28.3295 166.29 28.4986C166.582 28.6643 166.923 28.7472 167.314 28.7472C167.576 28.7472 167.813 28.7107 168.025 28.6378C168.237 28.5616 168.421 28.4505 168.577 28.3047C168.733 28.1589 168.851 27.9782 168.93 27.7628L170.61 27.9517C170.504 28.3958 170.302 28.7836 170.004 29.1151C169.709 29.4432 169.331 29.6984 168.87 29.8807C168.41 30.0597 167.883 30.1491 167.289 30.1491ZM178.373 22.3636V23.7557H173.984V22.3636H178.373ZM175.067 20.5341H176.867V27.7031C176.867 27.9451 176.904 28.1307 176.976 28.2599C177.053 28.3859 177.152 28.4721 177.275 28.5185C177.397 28.5649 177.533 28.5881 177.682 28.5881C177.795 28.5881 177.898 28.5798 177.991 28.5632C178.087 28.5466 178.16 28.5317 178.209 28.5185L178.513 29.9254C178.417 29.9586 178.279 29.995 178.1 30.0348C177.924 30.0746 177.709 30.0978 177.454 30.1044C177.003 30.1177 176.597 30.0497 176.236 29.9006C175.874 29.7481 175.588 29.5128 175.376 29.1946C175.167 28.8764 175.064 28.4787 175.067 28.0014V20.5341ZM181.282 25.5256V30H179.483V19.8182H181.243V23.6612H181.332C181.511 23.2304 181.788 22.8906 182.162 22.642C182.54 22.3902 183.021 22.2642 183.604 22.2642C184.134 22.2642 184.597 22.3752 184.991 22.5973C185.386 22.8194 185.691 23.1442 185.906 23.5717C186.125 23.9993 186.234 24.5213 186.234 25.1378V30H184.434V25.4162C184.434 24.9025 184.302 24.5031 184.037 24.218C183.775 23.9297 183.407 23.7855 182.933 23.7855C182.615 23.7855 182.33 23.8551 182.078 23.9943C181.829 24.1302 181.634 24.3274 181.491 24.5859C181.352 24.8445 181.282 25.1577 181.282 25.5256ZM187.509 30V22.3636H189.308V30H187.509ZM188.413 21.2798C188.128 21.2798 187.883 21.1854 187.678 20.9964C187.472 20.8042 187.369 20.5739 187.369 20.3054C187.369 20.0336 187.472 19.8033 187.678 19.6143C187.883 19.4221 188.128 19.326 188.413 19.326C188.702 19.326 188.947 19.4221 189.149 19.6143C189.355 19.8033 189.457 20.0336 189.457 20.3054C189.457 20.5739 189.355 20.8042 189.149 20.9964C188.947 21.1854 188.702 21.2798 188.413 21.2798ZM196.635 24.3821L194.994 24.5611C194.947 24.3954 194.866 24.2396 194.75 24.0938C194.638 23.9479 194.485 23.8303 194.293 23.7408C194.101 23.6513 193.865 23.6065 193.587 23.6065C193.212 23.6065 192.898 23.6877 192.642 23.8501C192.39 24.0125 192.266 24.223 192.269 24.4815C192.266 24.7036 192.347 24.8842 192.513 25.0234C192.682 25.1626 192.961 25.277 193.348 25.3665L194.651 25.6449C195.373 25.8007 195.91 26.0476 196.262 26.3857C196.616 26.7237 196.795 27.1662 196.799 27.7131C196.795 28.1937 196.654 28.6179 196.376 28.9858C196.101 29.3504 195.718 29.6354 195.228 29.8409C194.737 30.0464 194.174 30.1491 193.537 30.1491C192.603 30.1491 191.85 29.9536 191.28 29.5625C190.71 29.1681 190.37 28.6196 190.261 27.9169L192.016 27.7479C192.095 28.0926 192.264 28.3527 192.523 28.5284C192.782 28.7041 193.118 28.7919 193.532 28.7919C193.96 28.7919 194.303 28.7041 194.561 28.5284C194.823 28.3527 194.954 28.1357 194.954 27.8771C194.954 27.6584 194.87 27.4777 194.701 27.3352C194.535 27.1927 194.276 27.0833 193.925 27.0071L192.622 26.7337C191.89 26.5812 191.348 26.3243 190.997 25.9631C190.645 25.5985 190.471 25.1378 190.475 24.581C190.471 24.1103 190.599 23.7027 190.858 23.358C191.119 23.0099 191.482 22.7415 191.946 22.5526C192.414 22.3603 192.952 22.2642 193.562 22.2642C194.457 22.2642 195.161 22.4548 195.675 22.8359C196.192 23.2171 196.512 23.7325 196.635 24.3821ZM200.715 30V19.8182H204.533C205.315 19.8182 205.971 19.964 206.502 20.2557C207.035 20.5473 207.438 20.9484 207.71 21.4588C207.985 21.9659 208.122 22.5426 208.122 23.1889C208.122 23.8419 207.985 24.4219 207.71 24.929C207.435 25.4361 207.029 25.8355 206.492 26.1271C205.955 26.4155 205.294 26.5597 204.508 26.5597H201.978V25.0433H204.26C204.717 25.0433 205.091 24.9638 205.383 24.8047C205.675 24.6456 205.89 24.4268 206.029 24.1484C206.172 23.87 206.243 23.5502 206.243 23.1889C206.243 22.8277 206.172 22.5095 206.029 22.2344C205.89 21.9593 205.673 21.7455 205.378 21.593C205.086 21.4373 204.71 21.3594 204.25 21.3594H202.559V30H200.715ZM211.146 30.1541C210.662 30.1541 210.226 30.0679 209.838 29.8956C209.454 29.7199 209.149 29.4614 208.923 29.12C208.701 28.7786 208.59 28.3577 208.59 27.8572C208.59 27.4264 208.67 27.0701 208.829 26.7884C208.988 26.5066 209.205 26.2812 209.48 26.1122C209.755 25.9432 210.065 25.8156 210.41 25.7294C210.758 25.6399 211.118 25.5753 211.489 25.5355C211.936 25.4891 212.299 25.4477 212.578 25.4112C212.856 25.3714 213.058 25.3118 213.184 25.2322C213.313 25.1494 213.378 25.0218 213.378 24.8494V24.8196C213.378 24.4451 213.267 24.1551 213.045 23.9496C212.823 23.7441 212.503 23.6413 212.085 23.6413C211.645 23.6413 211.295 23.7375 211.036 23.9297C210.781 24.1219 210.609 24.349 210.519 24.6108L208.839 24.3722C208.972 23.9081 209.19 23.5204 209.495 23.2088C209.8 22.8939 210.173 22.6586 210.614 22.5028C211.055 22.3438 211.542 22.2642 212.075 22.2642C212.443 22.2642 212.81 22.3073 213.174 22.3935C213.539 22.4796 213.872 22.6222 214.173 22.821C214.475 23.0166 214.717 23.2834 214.899 23.6214C215.085 23.9595 215.178 24.3821 215.178 24.8892V30H213.448V28.951H213.388C213.279 29.1631 213.124 29.362 212.926 29.5476C212.73 29.7299 212.483 29.8774 212.185 29.9901C211.89 30.0994 211.543 30.1541 211.146 30.1541ZM211.613 28.8317C211.974 28.8317 212.288 28.7604 212.553 28.6179C212.818 28.4721 213.022 28.2798 213.164 28.0412C213.31 27.8026 213.383 27.5424 213.383 27.2607V26.3608C213.327 26.4072 213.231 26.4503 213.095 26.4901C212.962 26.5298 212.813 26.5646 212.647 26.5945C212.481 26.6243 212.317 26.6508 212.155 26.674C211.993 26.6972 211.852 26.7171 211.732 26.7337C211.464 26.7701 211.224 26.8298 211.012 26.9126C210.799 26.9955 210.632 27.1115 210.509 27.2607C210.387 27.4065 210.325 27.5954 210.325 27.8274C210.325 28.1589 210.446 28.4091 210.688 28.5781C210.93 28.7472 211.239 28.8317 211.613 28.8317ZM219.748 33.0227C219.102 33.0227 218.547 32.9349 218.083 32.7592C217.619 32.5869 217.246 32.3549 216.964 32.0632C216.683 31.7715 216.487 31.4484 216.378 31.0938L217.998 30.701C218.071 30.8501 218.177 30.9976 218.317 31.1435C218.456 31.2926 218.643 31.4152 218.878 31.5114C219.117 31.6108 219.417 31.6605 219.778 31.6605C220.289 31.6605 220.711 31.5362 221.046 31.2876C221.381 31.0424 221.548 30.638 221.548 30.0746V28.6278H221.459C221.366 28.8134 221.23 29.004 221.051 29.1996C220.875 29.3951 220.642 29.5592 220.35 29.6918C220.062 29.8243 219.699 29.8906 219.261 29.8906C218.675 29.8906 218.143 29.7531 217.665 29.478C217.191 29.1996 216.813 28.7853 216.532 28.2351C216.253 27.6816 216.114 26.9889 216.114 26.157C216.114 25.3184 216.253 24.6108 216.532 24.0341C216.813 23.4541 217.193 23.0149 217.67 22.7166C218.148 22.415 218.68 22.2642 219.266 22.2642C219.714 22.2642 220.081 22.3404 220.37 22.4929C220.662 22.642 220.894 22.8227 221.066 23.0348C221.238 23.2436 221.369 23.4408 221.459 23.6264H221.558V22.3636H223.333V30.1243C223.333 30.7772 223.177 31.3175 222.866 31.745C222.554 32.1726 222.128 32.4924 221.588 32.7045C221.048 32.9167 220.434 33.0227 219.748 33.0227ZM219.763 28.4787C220.144 28.4787 220.469 28.3859 220.738 28.2003C221.006 28.0147 221.21 27.7479 221.349 27.3999C221.488 27.0518 221.558 26.6342 221.558 26.147C221.558 25.6664 221.488 25.2455 221.349 24.8842C221.213 24.523 221.011 24.2429 220.743 24.044C220.478 23.8419 220.151 23.7408 219.763 23.7408C219.362 23.7408 219.028 23.8452 218.759 24.054C218.491 24.2628 218.288 24.5495 218.153 24.9141C218.017 25.2753 217.949 25.6863 217.949 26.147C217.949 26.6143 218.017 27.0237 218.153 27.375C218.292 27.723 218.496 27.9948 218.764 28.1903C219.036 28.3826 219.369 28.4787 219.763 28.4787ZM227.998 30.1491C227.232 30.1491 226.571 29.9901 226.014 29.6719C225.461 29.3504 225.035 28.8963 224.737 28.3097C224.438 27.7197 224.289 27.0253 224.289 26.2266C224.289 25.4411 224.438 24.7517 224.737 24.1584C225.038 23.5618 225.459 23.0978 225.999 22.7663C226.54 22.4316 227.174 22.2642 227.904 22.2642C228.374 22.2642 228.818 22.3404 229.236 22.4929C229.657 22.642 230.028 22.8741 230.35 23.1889C230.674 23.5038 230.93 23.9048 231.115 24.392C231.301 24.8759 231.394 25.4527 231.394 26.1222V26.674H225.134V25.4609H229.669C229.665 25.1162 229.591 24.8097 229.445 24.5412C229.299 24.2694 229.095 24.0556 228.833 23.8999C228.575 23.7441 228.273 23.6662 227.928 23.6662C227.561 23.6662 227.237 23.7557 226.959 23.9347C226.681 24.1103 226.463 24.3423 226.308 24.6307C226.155 24.9157 226.077 25.2289 226.074 25.5703V26.6293C226.074 27.0734 226.155 27.4545 226.318 27.7727C226.48 28.0876 226.707 28.3295 226.999 28.4986C227.29 28.6643 227.632 28.7472 228.023 28.7472C228.285 28.7472 228.522 28.7107 228.734 28.6378C228.946 28.5616 229.13 28.4505 229.286 28.3047C229.441 28.1589 229.559 27.9782 229.639 27.7628L231.319 27.9517C231.213 28.3958 231.011 28.7836 230.713 29.1151C230.418 29.4432 230.04 29.6984 229.579 29.8807C229.118 30.0597 228.591 30.1491 227.998 30.1491Z" fill="white"/>
</svg>
