<svg width="13" height="14" viewBox="0 0 13 14" fill="none" xmlns="http://www.w3.org/2000/svg">
<path d="M5.42159 0.380566C6.02332 -0.126856 6.90318 -0.126856 7.50491 0.380573L12.3523 4.46829C12.7164 4.77531 12.9265 5.22729 12.9265 5.70353V12.7433C12.9265 13.4373 12.3638 14 11.6698 14H9.15627C8.46219 14 7.89953 13.4373 7.89953 12.7433V8.7935C7.89953 8.69439 7.81917 8.61396 7.71999 8.61396H5.20651C5.10733 8.61396 5.02696 8.69439 5.02696 8.7935V12.7433C5.02696 13.4373 4.46431 14 3.77023 14H1.25674C0.562662 14 0 13.4373 0 12.7433V5.70353C0 5.22729 0.210092 4.77531 0.574166 4.46829L5.42159 0.380566ZM6.81047 1.20406C6.60989 1.03492 6.3166 1.03492 6.11603 1.20406L1.2686 5.29179C1.14724 5.39412 1.07721 5.54479 1.07721 5.70353V12.7433C1.07721 12.8424 1.15759 12.9228 1.25674 12.9228H3.77023C3.86938 12.9228 3.94976 12.8424 3.94976 12.7433V8.7935C3.94976 8.09941 4.51242 7.53675 5.20651 7.53675H7.71999C8.41407 7.53675 8.97673 8.09941 8.97673 8.7935V12.7433C8.97673 12.8424 9.05709 12.9228 9.15627 12.9228H11.6698C11.7689 12.9228 11.8493 12.8424 11.8493 12.7433V5.70353C11.8493 5.54479 11.7793 5.39412 11.6579 5.29179L6.81047 1.20406Z" fill="#6B6D71"/>
</svg>
